<?xml version="1.0" encoding="UTF-8"?><svg id="Layer_2" xmlns="http://www.w3.org/2000/svg" viewBox="0 0 197.7104 220.8904"><g id="Components"><g id="f42d3068-1466-44cd-8c01-26c3aa8f7491_1"><polygon points=".0192 165.7363 0 110.4732 95.6207 165.542 95.5489 220.8904 .0192 165.7363" style="fill:#0a2154;"/><polygon points="191.0585 165.6747 95.5489 220.8172 95.6207 165.542 191.1303 110.425 191.0585 165.6747" style="fill:#0f3280;"/><polygon points="95.6055 55.2737 0 110.4732 95.6207 165.542 191.1303 110.425 95.6055 55.2737" style="fill:#fff;"/><polygon points="119.4545 151.8613 95.5489 138.0299 119.3739 124.1955 143.3357 138.0299 119.4545 151.8613" style="fill:#06af68;"/><polygon points="191.0941 138.2486 191.1303 110.425 119.4423 151.8592 119.4799 179.4908 191.0941 138.2486" style="fill:#059458;"/><polygon points="167.3823 124.1926 143.4768 110.3611 167.3017 96.5268 191.1303 110.425 167.3823 124.1926" style="fill:#06af68;"/><polygon points="71.588 69.1945 71.6687 41.6534 95.5499 55.3602 95.5499 83.0289 71.588 69.1945" style="fill:#007846;"/><polygon points="119.5117 69.1945 95.5499 83.0289 95.5499 55.3602 119.5117 41.5258 119.5117 69.1945" style="fill:#059458;"/><polygon points="95.5499 27.819 71.6687 41.6534 95.5499 55.3602 119.5117 41.5258 95.5499 27.819" style="fill:#06af68;"/><polygon points="95.412 82.8683 95.4927 55.3272 119.3739 69.034 119.3739 96.7027 95.412 82.8683" style="fill:#007846;"/><polygon points="143.3357 82.8683 119.3739 96.7027 119.3739 69.034 143.3357 55.1996 143.3357 82.8683" style="fill:#059458;"/><polygon points="119.3739 41.4928 95.4927 55.3272 119.3739 69.034 143.3357 55.1996 119.3739 41.4928" style="fill:#06af68;"/><polygon points="119.3739 96.6253 119.4545 69.0842 143.3357 82.7909 143.3357 110.4597 119.3739 96.6253" style="fill:#007846;"/><polygon points="167.2975 96.6253 143.3357 110.4597 143.3357 82.7909 167.2975 68.9566 167.2975 96.6253" style="fill:#059458;"/><polygon points="143.3357 55.2498 119.4545 69.0842 143.3357 82.7909 167.2975 68.9566 143.3357 55.2498" style="fill:#06af68;"/><polygon points="47.6299 82.9177 47.7105 55.3766 71.5917 69.0833 71.5917 96.752 47.6299 82.9177" style="fill:#007846;"/><polygon points="95.5535 82.9177 71.5917 96.752 71.5917 69.0833 95.5535 55.2489 95.5535 82.9177" style="fill:#059458;"/><polygon points="71.5917 41.5422 47.7105 55.3766 71.5917 69.0833 95.5535 55.2489 71.5917 41.5422" style="fill:#06af68;"/><polygon points="23.3933 55.2737 23.3933 27.6049 47.3551 41.4393 47.3551 69.108 23.3933 55.2737" style="fill:#007846;"/><polygon points="71.3169 55.2737 47.3551 69.108 47.3551 41.4393 71.3169 27.6049 71.3169 55.2737" style="fill:#059458;"/><polygon points="47.3551 13.8982 23.3933 27.6049 47.3551 41.4393 71.3169 27.6049 47.3551 13.8982" style="fill:#06af68;"/><polygon points="149.7867 41.3755 149.7867 13.7067 173.7486 27.5411 173.7486 55.2099 149.7867 41.3755" style="fill:#007846;"/><polygon points="197.7104 41.3755 173.7486 55.2099 173.7486 27.5411 197.7104 13.7067 197.7104 41.3755" style="fill:#059458;"/><polygon points="173.7486 0 149.7867 13.7067 173.7486 27.5411 197.7104 13.7067 173.7486 0" style="fill:#06af68;"/><polygon points="0 110.5792 0 82.8045 23.9618 96.6389 23.9062 124.3742 0 110.5792" style="fill:#007846;"/><polygon points="23.9062 151.9416 23.9062 124.3742 47.8681 138.2086 47.8681 165.776 23.9062 151.9416" style="fill:#007846;"/><polygon points="47.7874 165.7335 47.7874 138.0648 71.7493 151.8992 71.7493 179.5679 47.7874 165.7335" style="fill:#007846;"/><polygon points="47.9237 110.4732 23.9618 124.3076 23.9618 96.6389 47.9237 82.8045 47.9237 110.4732" style="fill:#059458;"/><polygon points="23.9618 69.0978 0 82.8045 23.9618 96.6389 47.9237 82.8045 23.9618 69.0978" style="fill:#06af68;"/><polygon points="23.9062 124.3838 23.9062 96.715 47.8681 110.5494 47.8681 138.2181 23.9062 124.3838" style="fill:#0a2154;"/><polygon points="71.8855 124.3144 47.9237 138.1488 47.9237 110.48 71.8855 96.6457 71.8855 124.3144" style="fill:#b8bacc;"/><polygon points="47.6601 83.0755 23.6982 96.7822 47.6601 110.6166 71.6219 96.7822 47.6601 83.0755" style="fill:#1546b2;"/><polygon points="95.3886 68.9701 95.3886 41.3014 119.3504 55.1358 119.3504 82.8045 95.3886 68.9701" style="fill:#0a2154;"/><polygon points="143.3123 68.9701 119.3504 82.8045 119.3504 55.1358 143.3123 41.3014 143.3123 68.9701" style="fill:#0f3280;"/><polygon points="119.3504 27.5947 95.3886 41.3014 119.3504 55.1358 143.3123 41.3014 119.3504 27.5947" style="fill:#1546b2;"/><polygon points="95.412 110.5263 95.4927 82.9852 119.3739 96.6919 119.3739 124.3606 95.412 110.5263" style="fill:#007846;"/><polygon points="143.3357 110.5263 119.3739 124.3606 119.3739 96.6919 143.3357 82.8575 143.3357 110.5263" style="fill:#059458;"/><polygon points="119.3739 69.1508 95.4927 82.9852 119.3739 96.6919 143.3357 82.8575 119.3739 69.1508" style="fill:#06af68;"/><polygon points="71.6855 124.2574 71.7661 96.7162 95.6473 110.423 95.6473 138.0917 71.6855 124.2574" style="fill:#007846;"/><polygon points="119.6092 124.2574 95.6473 138.0917 95.6473 110.423 119.6092 96.5886 119.6092 124.2574" style="fill:#059458;"/><polygon points="95.6473 82.8819 71.6219 96.7822 95.6473 110.423 119.6092 96.5886 95.6473 82.8819" style="fill:#06af68;"/><polygon points="119.3739 124.1955 119.3739 96.5268 143.3357 110.3611 143.3357 138.0299 119.3739 124.1955" style="fill:#007846;"/><polygon points="167.3943 124.1197 143.3357 138.0299 143.3357 110.3611 167.2975 96.5268 167.3943 124.1197" style="fill:#059458;"/><polygon points="143.3357 82.82 119.3739 96.5268 143.3357 110.3611 167.2975 96.5268 143.3357 82.82" style="fill:#06af68;"/><polygon points="119.3739 138.5085 119.3739 110.8397 143.3357 124.6741 143.3357 152.3428 119.3739 138.5085" style="fill:#0a2154;"/><polygon points="167.2975 138.5085 143.3357 152.3428 143.3357 124.6741 167.2975 110.8397 167.2975 138.5085" style="fill:#0f3280;"/><polygon points="143.3357 97.133 119.3739 110.8397 143.3357 124.6741 167.2975 110.8397 143.3357 97.133" style="fill:#1546b2;"/><polygon points="47.7746 138.1406 47.7746 110.4719 95.4805 138.0231 95.4805 165.6918 47.7746 138.1406" style="fill:#007846;"/><polygon points="119.4423 151.8575 95.4805 165.6918 95.4805 138.0231 119.4423 124.1887 119.4423 151.8575" style="fill:#059458;"/><polygon points="71.6219 96.7822 47.7746 110.5528 95.4805 138.104 119.4423 124.2697 71.6219 96.7822" style="fill:#06af68;"/></g></g></svg>